# xmcd
#
# Track frame offsets:
#	150
#	27964
#	50080
#	73179
#	90983
#	115976
#	131699
#	151667
#	163136
#	185206
#
# Disc length: 2786
#
# Revision: 2
# Processed by: cddbd v1.5.1PL0 Copyright (c) Steve Scherf et al.
# Submitted via: CDex 1.30FinalFR
# Normalized: r1:TRMNUM
#
DISCID=890ae00a
DTITLE=Roy Cox and The Bluesknights - Before I Go
DYEAR=1999
DGENRE=Blues
TTITLE0=All The King's Men
TTITLE1=Before I Go
TTITLE2=Down In the Gutter
TTITLE3=American Music
TTITLE4=The Sherrif Don't Know
TTITLE5=A Bluesknight In The City
TTITLE6=Lovin' You Baby
TTITLE7=Teena's Too Young
TTITLE8=Everyman's Need
TTITLE9=Smack Dab In The Middle Of Love
EXTD=YEAR: 1999 ID3G:   0
EXTT0=
EXTT1=
EXTT2=
EXTT3=
EXTT4=
EXTT5=
EXTT6=
EXTT7=
EXTT8=
EXTT9=
PLAYORDER=
